PathFileType	4	(X/Y/Z)	C:/Users/beibeiliu/ov580/test_trc\sequence.33_training_dense_right.trc
DataRate	CameraRate	NumFrames	NumMarkers	Units	OrigDataRate	OrigDataStartFrame	OrigNumFrames
120	120	12	19	mm	120	280	373
Frame#	Time	ThumbCMC			ThumbMCP			ThumbIP			ThumbTip			IndexMCP			IndexPIP			IndexTip			MiddleMCP			MiddlePIP			MiddleTip			RingMCP			RingPIP			RingTip			PinkyMCP			PinkyPIP			PinkyTip			BackHand1			BackHand2			BackHand3	
		X0	Y0	Z0	X1	Y1	Z1	X2	Y2	Z2	X3	Y3	Z3	X4	Y4	Z4	X5	Y5	Z5	X6	Y6	Z6	X7	Y7	Z7	X8	Y8	Z8	X9	Y9	Z9	X10	Y10	Z10	X11	Y11	Z11	X12	Y12	Z12	X13	Y13	Z13	X14	Y14	Z14	X15	Y15	Z15	X16	Y16	Z16	X17	Y17	Z17	X18	Y18	Z18	
279	2.325	246.716	-12.6692	33.2389	259.503	14.6825	21.2244	255.059	36.1666	8.66656	232.975	49.3662	3.49899	234.894	15.7111	-26.9735	236.453	42.1503	-17.9029	239	37.0669	9.36635	213.906	15.4877	-30.8496	216.325	41.4326	-44.1322	218.965	65.4434	-45.5314	197.395	14.5903	-25.6176	194.871	34.1387	-38.9281	196.055	52.7544	-46.5423	173.997	14.44	-5.89846	169.61	28.2634	-18.0493	165.202	39.3363	-35.2686	194.289	-20.0231	12.8582	198.953	-33.066	32.2743	222.463	-30.2875	16.7357	
280	2.33333	247.898	-12.5599	34.6909	258.826	13.5065	22.0122	248.833	36.0313	6.41152	228.153	50.6626	3.56838	233.821	15.7955	-26.0702	238.285	43.8285	-16.5647	238.506	32.9664	11.1331	214.566	20.0045	-33.3146	215.253	41.218	-41.1917	218.947	71.1681	-42.5815	198.574	17.9441	-26.2094	197.587	34.3032	-37.0722	196.262	57.4853	-45.2229	177.437	13.8272	-6.86227	170.682	30.7245	-18.9453	168.385	43.7583	-34.3236	197.18	-18.051	7.92722	197.45	-31.6415	31.7546	224.011	-26.9182	14.7829	
281	2.34167	247.203	-12.4392	31.7424	258.245	15.377	18.3901	247.879	34.4856	6.17487	228.297	50.9677	3.31809	234.702	15.4443	-26.0683	240.053	43.1423	-18.4901	236.745	35.5335	8.89849	213.728	18.229	-30.846	220.372	45.705	-41.8882	218.519	72.0878	-39.8626	194.749	17.199	-21.279	197.022	39.1938	-36.5943	200.561	61.2	-43.9509	178.154	16.2617	-7.04632	173.866	31.8276	-18.3487	165.499	47.2671	-32.2725	197.825	-16.3923	9.69752	199.333	-30.3722	31.8928	224.455	-27.7693	15.38	
282	2.35	248.241	-12.2472	30.8047	261.184	15.7247	18.5549	251.471	34.5442	8.02986	229.398	48.7303	4.40908	238.399	19.09	-27.7522	236.355	44.087	-18.5482	235.086	33.3331	9.56022	212.972	22.5469	-31.7713	218.243	47.9939	-40.0709	221.346	75.0234	-37.7808	196.515	22.2	-24.8238	197.149	41.6125	-34.7891	201.426	61.3631	-42.2192	177.928	17.0522	-6.72004	173.6	35.0792	-19.7828	170.733	47.3355	-33.3852	194.729	-17.8942	9.50908	199.785	-31.4456	33.9639	224.563	-28.1544	13.4848	
283	2.35833	246.516	-11.7625	31.0227	258.516	15.4743	17.4862	248.378	34.2807	7.55502	227.148	45.7084	5.09576	237.491	15.85	-26.9203	236.85	44.9891	-16.3595	237.348	32.4155	10.7244	215.214	20.1509	-29.639	216.93	47.841	-38.3889	219.612	75.3851	-36.1997	193.279	21.2372	-22.1633	195.86	43.3726	-34.7406	198.323	62.1632	-40.7055	176.008	18.1803	-5.09662	172.014	34.3801	-15.9964	171.782	47.5394	-29.1139	195.99	-15.7623	9.42123	195.101	-29.8561	33.1494	223.204	-28.0859	15.1375	
284	2.36667	244.367	-11.6765	31.3224	259.393	15.6249	17.2987	251.839	33.7177	7.92687	225.379	49.8604	4.13407	237.867	16.15	-26.6141	239.355	45.345	-19.1674	238.959	33.2612	9.90203	215.48	22.0935	-30.796	219.13	49.5966	-39.5461	223.19	77.0733	-35.7548	195.009	22.8254	-24.6142	195.096	42.2796	-32.6731	201.051	65.2329	-41.0119	179.701	20.7453	-9.9833	177.574	36.6527	-21.2513	173.663	48.4727	-30.1012	193.625	-14.1954	8.72839	196.233	-31.2569	33.1722	219.051	-27.8948	15.6572	
285	2.375	244.298	-10.6356	28.3223	256.531	14.5282	16.636	249.982	34.5927	6.26694	225.859	46.3741	4.25835	237.845	17.3601	-27.6614	235.835	44.6113	-19.4513	238.4	34.6658	8.79057	217.453	20.3648	-30.3917	220.444	49.5665	-38.5186	221.082	75.7225	-34.7968	195.196	24.2756	-24.354	197.518	41.3538	-33.2675	199.083	65.9915	-38.8178	177.009	22.0417	-10.4463	176.991	36.9712	-21.2724	172.362	47.0214	-30.3506	197.621	-17.682	8.1079	197.38	-28.5524	28.2318	222.625	-27.6067	16.5065	
286	2.38333	243.765	-9.97281	28.2237	257.863	15.4501	15.7306	249.465	36.038	5.09129	224.576	47.4752	4.13224	234.161	16.8949	-28.004	236.848	43.3212	-22.2887	238.004	35.2678	7.52697	213.933	23.566	-32.4763	215.496	47.4284	-37.9537	224.456	76.457	-31.9264	195.926	23.9165	-25.5346	199.324	45.2259	-33.9969	203.372	63.6881	-36.6368	177.181	19.9561	-7.95116	177.385	35.4061	-18.6034	172.97	50.7269	-31.7768	194.857	-16.3197	9.51569	196.963	-29.3923	31.6901	223.932	-28.3673	14.201	
287	2.39167	246.87	-12.965	30.6515	258.259	14.3457	16.2539	250.126	34.0966	3.94739	224.538	43.2028	3.58066	235.089	14.5267	-29.0964	240.495	42.4218	-22.8828	236.309	31.683	7.94435	217.273	18.913	-30.7586	217.954	46.0017	-38.152	226.233	76.997	-28.3766	193.672	22.8008	-22.7476	199.984	46.406	-33.6753	202.864	70.075	-36.8113	177.071	22.6422	-9.26115	176.875	39.8969	-19.8886	177.684	48.214	-29.2234	192.376	-17.5777	8.55604	195.232	-27.6513	29.066	224.515	-26.9562	15.2144	
288	2.4	248.03	-13.8767	32.3953	260.377	14.0409	13.7806	248.309	34.2884	1.63668	223.311	45.9979	1.51719	234.02	14.5301	-29.4421	237.048	41.1949	-24.3087	235.731	29.9431	6.58376	215.862	21.572	-33.0821	217.873	48.5274	-36.4604	226.792	73.1526	-27.4791	198.342	20.0472	-22.3594	199.885	44.2105	-32.2612	208.9	67.2256	-35.752	178.048	22.9624	-10.3284	176.085	35.7437	-16.8254	179.612	53.9032	-32.0526	195.089	-18.9568	10.5749	199.342	-30.5999	28.4529	220.104	-27.2716	17.0204	
289	2.40833	246.933	-14.5077	30.1973	261.734	11.4946	15.7255	254.696	33.2956	3.15904	229.581	42.8706	1.63076	237.905	11.6005	-30.0164	237.104	39.3115	-24.762	239.992	32.3309	3.46185	219.396	18.0446	-31.7816	218.418	44.7553	-36.732	224.572	72.9282	-25.597	198.772	22.333	-25.0754	200.275	44.8221	-33.7194	206.319	66.2304	-34.8158	178.486	23.0427	-11.9013	181.993	37.0901	-20.6644	180.062	50.4291	-28.8189	192.76	-16.9216	11.2821	194.821	-30.3746	32.2243	222.258	-30.1595	14.3094	
290	2.41667	248.31	-15.517	30.8877	260.272	11.1445	13.7683	249.729	30.3317	-0.333385	226.765	42.8861	-3.11987	240.111	13.4517	-31.771	238.311	40.8512	-23.8905	238.19	36.4512	2.44872	218.673	20.2325	-32.7485	222.179	47.1067	-36.8192	227.162	73.8182	-23.453	200.852	19.1504	-24.5722	202.404	43.9885	-33.055	210.444	64.9314	-35.4781	178.59	18.6558	-8.89265	184.618	36.3467	-21.6843	179.365	53.2052	-30.9173	193.458	-17.6836	8.82515	195.831	-30.7944	30.5232	222.757	-29.757	13.647	
